# xmcd
#
# Track frame offsets: 
#        150
#        16535
#        34119
#        48608
#        64625
#        77431
#        103506
#        116563
#        135143
#        151601
#        179728
#        191899
#
# Disc length: 2740 seconds
#
# Revision: 0
# Processed by: cddbd v1.5.2PL0 Copyright (c) Steve Scherf et al.
# Submitted via: ExactAudioCopy v0.95b3
#
DISCID=8c0ab20c
DTITLE=Psychedelic Minds  - Vol.1 - Heavy Underground 1967-71
DYEAR=1900
DGENRE=
TTITLE0=Blackrock - Black Cloud Overhead (1969)
TTITLE1=Sound Machine - Woman (1971)
TTITLE2=Yesterday's Obsession - The Phycle (1968)
TTITLE3=Mastermind - Turn Of The Head (1969)
TTITLE4=Sangre Mexicana - Good Cause (1970)
TTITLE5=Bhagavad Gita - Long Hair Soulful (1968)
TTITLE6=Protein Bros - Drainpipe (1971)
TTITLE7=Purple Canteen - Brains In My Feet (1968)
TTITLE8=Los Nuevos Shains - Looking You (1971)
TTITLE9=Blow Mind - They´re Coming (1970)
TTITLE10=Dirty Filthy Mud - Morning Sun Flower (1967)
TTITLE11=Dirty Filthy Mud - The Forest of Black (1967)
EXTD=
EXTT0=
EXTT1=
EXTT2=
EXTT3=
EXTT4=
EXTT5=
EXTT6=
EXTT7=
EXTT8=
EXTT9=
EXTT10=
EXTT11=
PLAYORDER=
